<?xml version="1.0" encoding="UTF-8"?>
<svg width="1440" height="320" viewBox="0 0 1440 320" fill="none" xmlns="http://www.w3.org/2000/svg">
  <defs>
    <linearGradient id="waveGradient" x1="0%" y1="0%" x2="100%" y2="0%">
      <stop offset="0%" style="stop-color:#DDA853;stop-opacity:1" />
      <stop offset="100%" style="stop-color:#FFD700;stop-opacity:0.3" />
    </linearGradient>
  </defs>
  
  <!-- First Wave -->
  <path d="M0,160L60,170.7C120,181,240,203,360,197.3C480,192,600,160,720,154.7C840,149,960,171,1080,181.3C1200,192,1320,192,1380,192L1440,192L1440,320L1380,320C1320,320,1200,320,1080,320C960,320,840,320,720,320C600,320,480,320,360,320C240,320,120,320,60,320L0,320Z" fill="url(#waveGradient)">
    <animate
      attributeName="d"
      dur="15s"
      repeatCount="indefinite"
      values="
        M0,160L60,170.7C120,181,240,203,360,197.3C480,192,600,160,720,154.7C840,149,960,171,1080,181.3C1200,192,1320,192,1380,192L1440,192L1440,320L1380,320C1320,320,1200,320,1080,320C960,320,840,320,720,320C600,320,480,320,360,320C240,320,120,320,60,320L0,320Z;
        M0,224L60,213.3C120,203,240,181,360,181.3C480,181,600,203,720,224C840,245,960,267,1080,261.3C1200,256,1320,224,1380,208L1440,192L1440,320L1380,320C1320,320,1200,320,1080,320C960,320,840,320,720,320C600,320,480,320,360,320C240,320,120,320,60,320L0,320Z;
        M0,192L60,197.3C120,203,240,213,360,229.3C480,245,600,267,720,250.7C840,235,960,181,1080,181.3C1200,181,1320,235,1380,234.7L1440,235L1440,320L1380,320C1320,320,1200,320,1080,320C960,320,840,320,720,320C600,320,480,320,360,320C240,320,120,320,60,320L0,320Z;
        M0,160L60,170.7C120,181,240,203,360,197.3C480,192,600,160,720,154.7C840,149,960,171,1080,181.3C1200,192,1320,192,1380,192L1440,192L1440,320L1380,320C1320,320,1200,320,1080,320C960,320,840,320,720,320C600,320,480,320,360,320C240,320,120,320,60,320L0,320Z"
    />
  </path>

  <!-- Second Wave -->
  <path d="M0,224L60,213.3C120,203,240,181,360,181.3C480,181,600,203,720,224C840,245,960,267,1080,261.3C1200,256,1320,224,1380,208L1440,192L1440,320L1380,320C1320,320,1200,320,1080,320C960,320,840,320,720,320C600,320,480,320,360,320C240,320,120,320,60,320L0,320Z" fill="#FFD700" fill-opacity="0.3">
    <animate
      attributeName="d"
      dur="12s"
      repeatCount="indefinite"
      values="
        M0,224L60,213.3C120,203,240,181,360,181.3C480,181,600,203,720,224C840,245,960,267,1080,261.3C1200,256,1320,224,1380,208L1440,192L1440,320L1380,320C1320,320,1200,320,1080,320C960,320,840,320,720,320C600,320,480,320,360,320C240,320,120,320,60,320L0,320Z;
        M0,192L60,197.3C120,203,240,213,360,229.3C480,245,600,267,720,250.7C840,235,960,181,1080,181.3C1200,181,1320,235,1380,234.7L1440,235L1440,320L1380,320C1320,320,1200,320,1080,320C960,320,840,320,720,320C600,320,480,320,360,320C240,320,120,320,60,320L0,320Z;
        M0,160L60,170.7C120,181,240,203,360,197.3C480,192,600,160,720,154.7C840,149,960,171,1080,181.3C1200,192,1320,192,1380,192L1440,192L1440,320L1380,320C1320,320,1200,320,1080,320C960,320,840,320,720,320C600,320,480,320,360,320C240,320,120,320,60,320L0,320Z;
        M0,224L60,213.3C120,203,240,181,360,181.3C480,181,600,203,720,224C840,245,960,267,1080,261.3C1200,256,1320,224,1380,208L1440,192L1440,320L1380,320C1320,320,1200,320,1080,320C960,320,840,320,720,320C600,320,480,320,360,320C240,320,120,320,60,320L0,320Z"
    />
  </path>
</svg> 